<?xml version="1.0" encoding="utf-8"?>
<!-- Generator: Adobe Illustrator 24.1.2, SVG Export Plug-In . SVG Version: 6.00 Build 0)  -->
<svg version="1.1" id="All__work" xmlns="http://www.w3.org/2000/svg" xmlns:xlink="http://www.w3.org/1999/xlink" x="0px" y="0px"
	 viewBox="0 0 419.25 484.18" style="enable-background:new 0 0 419.25 484.18;" xml:space="preserve">
<style type="text/css">
	.st0{fill:#A3D0E3;}
	.st1{fill:#558EB2;}
	.st2{display:none;}
	.st3{display:inline;}
	.st4{display:inline;fill:#A3D0E3;}
</style>
<g>
	<g>
		<path class="st0" d="M286.51,308.12c-1.28-1.05-2.69-1.87-4.17-2.49c-1.48,0.62-2.89,1.44-4.17,2.49
			c-8.46,6.93-8.47,19.81,0,26.74c1.28,1.05,2.69,1.87,4.17,2.49c1.48-0.62,2.89-1.44,4.17-2.49
			C294.98,327.94,294.98,315.05,286.51,308.12z"/>
		<path class="st0" d="M89.36,274.48c-1.07,0.97-1.99,2.09-2.75,3.31c-0.26,0.43-0.5,0.86-0.72,1.3c0.04,0.07,0.07,0.14,0.1,0.2
			c4.24,7.9,14.12,11.25,22.28,7.55c3.68-1.67,6.46-4.46,8.17-7.77C111.34,269.35,98.16,266.49,89.36,274.48z"/>
		<path class="st0" d="M244.09,138.93c-0.09-2.02-0.55-4.01-1.37-5.86c-1.17-2.65-2.9-4.89-5-6.6c-2.51-2.04-5.57-3.34-8.89-3.73
			c-1.16-0.13-2.31-0.14-3.44-0.04c-1.7,2.05-2.94,4.5-3.53,7.23c-2.11,9.73,4.41,19.14,14.11,20.69c1.43,0.23,2.85,0.27,4.23,0.15
			C242.79,147.64,244.3,143.53,244.09,138.93z"/>
		<path class="st0" d="M224.02,213.9c-16.7-8.45-36.56-0.72-43.55,15.95c2.83,6.74,7.95,12.5,14.78,15.96
			c16.7,8.45,36.56,0.72,43.55-15.95C235.98,223.13,230.85,217.36,224.02,213.9z"/>
		<path class="st0" d="M383.04,156.71c3,0.63,6.04,0.46,8.88-0.46c2.59-0.85,5.02-2.32,7.07-4.4c1.16-1.17,2.12-2.53,2.88-3.99
			c-0.81-1.55-1.87-3-3.16-4.31c-1.46-1.47-3.21-2.66-5.11-3.48c-5.52-2.38-11.55-1.83-16.4,1.33c-2.51,1.64-4.51,3.85-5.86,6.44
			C373.78,152.46,378.01,155.65,383.04,156.71z"/>
		<path class="st0" d="M230.07,28.78c-2.13-4.87-5.85-8.73-10.56-11.05c-5.21,2.57-9.16,6.99-11.14,12.52
			c-1.7,4.76-1.72,10.01-0.05,14.78c2.03,5.81,6.17,10.19,11.21,12.67C230.13,52.48,234.86,39.73,230.07,28.78z"/>
		<path class="st0" d="M34.98,140.18c-0.77-0.21-1.56-0.31-2.34-0.31c-1.56,0-3.1,0.41-4.48,1.21v0c-1.39,0.8-2.51,1.94-3.29,3.29
			c1.2,2.08,3.14,3.56,5.45,4.18c2.65,0.71,5.44,0.19,7.69-1.47c1.01-0.74,1.82-1.68,2.42-2.73
			C39.23,142.28,37.29,140.8,34.98,140.18z"/>
		<path class="st0" d="M47.82,336.1c-2.15-3.87-5.49-6.65-9.4-8.03c-1.41-0.5-2.9-0.82-4.43-0.94c-2.56-0.2-5.07,0.16-7.41,1.04
			c-0.15,0.41-0.29,0.82-0.41,1.23c-1.61,5.76-0.28,11.63,3.46,16.01l0,0c3.76,4.4,9.39,6.63,15.37,5.9
			c1.29-0.16,2.55-0.49,3.77-0.94c0.98-2.62,1.34-5.49,0.96-8.46C49.47,339.88,48.81,337.89,47.82,336.1z"/>
		<path class="st0" d="M221.31,445.55c-3.64-2.24-7.67-3.3-11.64-3.3c-8.44,0-16.63,4.79-20.41,13.25c2.3,5.2,6.49,9.35,11.98,11.62
			c3.48,1.44,7.31,1.95,11.05,1.48c7.23-0.91,13.33-5.05,16.81-11.26c0.33-0.59,0.62-1.18,0.89-1.79
			C228.23,451.53,225.28,447.99,221.31,445.55z"/>
		<path class="st0" d="M394.41,339.81c-0.8-1.39-1.94-2.51-3.29-3.29c-2.08,1.2-3.56,3.14-4.18,5.45c-0.71,2.65-0.19,5.44,1.47,7.7
			c0.74,1.01,1.68,1.81,2.72,2.41c2.08-1.2,3.56-3.14,4.18-5.45C395.93,344.31,395.61,341.89,394.41,339.81z"/>
	</g>
	<path class="st1" d="M402.77,168.21c1.91-1.09,3.73-2.39,5.45-3.88c4.28-3.73,7.5-8.58,9.3-13.96c3.24-9.69,1.9-19.94-3.56-28.33
		c-4.76-7.31-12.08-12.32-20.61-14.12c-5.79-1.22-11.56-0.82-16.82,0.9c-2.58,0.84-5.03,2-7.3,3.44c-4.5,2.84-10.24,2.8-14.85,0.14
		l-96.84-55.91c-6.45-3.72-10.3-10.67-10.17-18.12c0.1-5.57-1.06-11.15-3.46-16.38c-3.84-8.36-10.68-15.1-19.12-18.78
		c-9.76-4.26-20.58-4.25-30.27-0.01c-9.23,4.04-16.33,11.43-19.99,20.81c-1.8,4.6-2.66,9.41-2.6,14.2
		c0.09,7.5-3.68,14.52-10.18,18.27l-103.4,59.7c-4.96,2.86-10.98,3.38-16.27,1.18c-1-0.42-2.04-0.77-3.11-1.06
		c-6.3-1.69-12.87-0.82-18.52,2.44v0c-6.59,3.8-10.98,10.33-12.01,18.05c-0.54,4.06-0.03,8.23,1.5,12.03
		c1.89,4.71,5.04,8.57,9.01,11.26c3.82,2.59,6,7,6,11.62l0,131.5c0,5.16-2.94,9.82-7.5,12.23c-3.33,1.76-6.39,4.11-9.05,7.03
		c-3.94,4.33-6.64,9.69-7.76,15.43c-1.96,10.03,0.69,20.03,7.2,27.64c3.85,4.5,8.66,7.7,13.88,9.54c5.97,2.11,12.47,2.45,18.64,0.96
		c2.59-0.63,6.76-3,10.2-5.18c3.7-2.36,8.4-2.49,12.2-0.29l98.81,57.05c6.55,3.78,10.44,10.83,10.36,18.39
		c-0.05,4.63,0.76,9.3,2.45,13.83c2.54,6.78,7.04,12.72,12.89,17c6.67,4.87,14.43,7.37,22.32,7.37c4.44,0,8.92-0.79,13.26-2.4
		c6.56-2.42,12.35-6.67,16.61-12.22c5.49-7.15,8-15.44,7.88-23.56c-0.11-7.64,4-14.72,10.62-18.54l102.93-59.43
		c4.99-2.88,11.05-3.39,16.37-1.19c0.99,0.41,2.01,0.76,3.05,1.04c2.1,0.56,4.24,0.84,6.36,0.84c5.62,0,11.15-1.96,15.74-5.77
		c2.64-2.19,4.78-4.96,6.24-8.06c3.52-7.5,3.13-15.84-0.88-22.78c-1.39-2.41-3.15-4.53-5.2-6.29c-5.2-4.48-8.23-10.97-8.23-17.83
		v-124.9C394.33,176.99,397.47,171.24,402.77,168.21z M233.03,67.31l0.1-0.08c3.11-2.46,7.4-2.77,10.82-0.79l103.87,60.1
		c1.91,1.1,1.06,4.02-1.14,3.93l-64.86-2.74c-5.97-0.25-11.35-3.68-14.09-8.99c-4.59-8.93-13.22-15.64-23.87-17.35l-0.07-0.01
		c-4.38-0.7-7.98-3.83-9.27-8.08l-4.74-15.64C228.64,73.86,229.93,69.76,233.03,67.31z M221.87,129.94
		c1.86-8.57,10.09-14.45,18.8-13.44c3.32,0.39,6.38,1.68,8.89,3.73c2.1,1.71,3.83,3.94,5,6.6c0.82,1.85,1.28,3.84,1.37,5.86
		c0.51,11.31-9.39,19.65-19.95,17.95C226.28,149.08,219.75,139.67,221.87,129.94z M240.26,250.05
		c-5.16,19.58-26.95,29.37-45.01,20.23c-13.16-6.66-20-21.88-16.24-36.15c5.16-19.58,26.95-29.37,45.01-20.23
		C237.18,220.57,244.02,235.78,240.26,250.05z M188.63,30.26c2.43-6.81,7.85-11.94,14.92-13.99c3.66-1.06,7.57-1.14,11.27-0.24
		c6.93,1.7,12.44,6.36,15.24,12.75c4.93,11.26-0.22,24.44-11.48,29.37l0,0c-11.79,5.16-25.68-0.72-30.01-13.11
		C186.91,40.27,186.93,35.02,188.63,30.26z M54.22,151.25c1.59-3.03,2.53-6.36,2.76-9.77c0.29-4.34,2.68-8.27,6.45-10.45
		l109.99-63.5c4.43-2.56,9.95-2.27,14.1,0.73c5.46,3.94,11.9,6.37,18.61,7.01c4.23,0.4,7.82,3.28,9.05,7.35L220,98.49
		c1.18,3.89-0.03,8.1-3.06,10.81c-5.4,4.82-9.24,11.46-10.47,19.15c-1.39,8.68,0.79,17.11,5.45,23.81c0.73,1.04,2.47,2.78,4.38,4.52
		c4.05,3.69,5.72,9.32,4.3,14.61l-3.54,13.2c-1.57,5.85-6.59,10.08-12.61,10.75c-16.97,1.91-32.33,13-38.81,30.04
		c-1.52,4.01-2.46,8.1-2.85,12.17c-0.54,5.68-4.68,10.37-10.19,11.84l-13.81,3.7c-4.95,1.33-10.17-0.29-13.64-4.05
		c-5.49-5.95-12.95-9.57-20.82-10.36c-7.46-0.74-13.98-5.33-17.41-11.99L54.2,163.14C52.28,159.41,52.27,154.97,54.22,151.25z
		 M108.27,286.85c-8.16,3.7-18.04,0.35-22.28-7.55c-2.91-5.43-2.76-11.92,0.62-17.43c0.75-1.23,1.68-2.35,2.75-3.31
		c8.82-8.02,22.06-5.12,27.12,4.68C120.97,271.95,117.3,282.76,108.27,286.85z M24.86,144.36c-1.2-2.08-1.52-4.5-0.9-6.82
		c0.62-2.32,2.11-4.26,4.19-5.46v0c1.39-0.8,2.92-1.21,4.48-1.21c0.78,0,1.57,0.1,2.34,0.31c2.65,0.71,4.81,2.55,5.93,5.12
		c1.65,3.78,0.43,8.34-2.89,10.78c-2.25,1.66-5.04,2.18-7.69,1.47C28,147.93,26.06,146.44,24.86,144.36z M40.81,359.5
		c-1.82,1.01-3.83,1.65-5.9,1.9c-5.97,0.73-11.61-1.5-15.37-5.9l0,0c-3.74-4.38-5.07-10.25-3.46-16.01
		c0.58-2.08,1.57-4.04,2.91-5.73c3.71-4.7,9.25-7.09,14.99-6.63c1.53,0.12,3.02,0.44,4.43,0.94c3.91,1.38,7.24,4.16,9.4,8.03
		c1,1.8,1.65,3.78,1.91,5.82C50.66,349.18,47.22,355.96,40.81,359.5z M52.06,312.31c-1.88,2.01-4.79,2.66-7.35,1.66l-0.09-0.04
		c-2.57-1.01-4.26-3.49-4.26-6.26V178.46c0-2.17,2.92-2.88,3.92-0.95l28.96,56.24c3.41,6.63,3.43,14.59-0.29,21.04
		c-2.68,4.63-4.19,9.87-4.39,15.23c-0.12,3.25,0.46,7.91,1.75,12.04c1.55,4.92,0.45,10.29-3.08,14.06L52.06,312.31z M229.1,457.34
		c-3.48,6.21-9.58,10.35-16.81,11.26c-3.74,0.47-7.57-0.04-11.05-1.48c-7.84-3.24-13.06-10.32-13.84-18.84
		c-0.27-3.02,0.1-6.08,1.09-8.95c3.34-9.65,12.12-15.17,21.18-15.17c3.97,0,7.99,1.06,11.64,3.3
		C231.41,433.66,234.89,447,229.1,457.34z M230.36,399.47c-4,6.3-11.14,9.75-18.6,9.34c-7.52-0.41-15.02,1.44-21.47,5.28
		c-6.38,3.8-14.27,4.05-20.71,0.33l-97.53-56.31c-4.08-2.35-6.51-6.88-5.95-11.55c0.6-4.95-0.69-9.63-2.49-13.6
		c-1.94-4.29-1.06-9.32,2.16-12.76l12.69-13.55c3.57-3.81,8.96-5.47,13.98-4.07c7.65,2.13,16.09,1.49,23.69-2.43
		c8.99-4.64,14.91-12.91,16.91-22.1c1.07-4.94,4.94-8.8,9.82-10.1l13.92-3.73c5.42-1.45,11.26,0.52,14.5,5.11
		c5.21,7.36,12.58,13.31,21.63,16.74c11.3,4.29,23.24,3.93,33.71-0.14c7.02-2.73,14.99-0.97,20.31,4.36l5.36,5.36
		c4.72,4.72,6.65,11.55,5.06,18.03c-1.83,7.47-0.99,15.46,2.51,22.45c2.97,5.92,2.47,12.99-1.08,18.58L230.36,399.47z
		 M353.74,354.36l-97.79,56.46c-4.91,2.83-10.38-2.7-7.5-7.58l24.78-41.88c2.89-4.88,8.28-7.62,13.95-7.3
		c8.97,0.51,18.11-2.65,24.95-9.49l0.08-0.08c4.81-4.82,11.84-6.68,18.4-4.86c6.99,1.94,15.6,4.35,22.14,6.28
		C356.64,347.06,357.26,352.33,353.74,354.36z M278.17,308.12c6.27-5.13,15.48-5.13,21.75,0c8.46,6.93,8.47,19.81,0,26.74
		c-6.27,5.13-15.48,5.13-21.75,0C269.7,327.94,269.7,315.05,278.17,308.12z M371.8,324.66c-0.05,0.04-0.1,0.08-0.14,0.12
		c-4.69,3.94-10.89,5.58-16.85,4.18l-21.07-4.93c-6.36-1.49-11.62-6.11-13.57-12.34c-1.52-4.86-4.2-9.43-8.05-13.28
		c-8.38-8.38-20.22-11.24-30.96-8.58c-6.45,1.6-13.26-0.38-17.96-5.08l-5.22-5.22c-5.4-5.4-7.13-13.48-4.41-20.62l0.04-0.12
		c7.68-20.22,0.45-42.5-16.21-54.69c-4.86-3.55-7.01-9.74-5.45-15.55l3.37-12.59c1.39-5.2,5.46-9.34,10.7-10.56
		c8.37-1.94,15.69-7.14,20.27-14.39c3.22-5.1,8.85-8.16,14.88-7.9l64.32,2.72c5.03,0.21,9.41,3.3,11.56,7.85
		c3.02,6.42,8.1,11.82,14.58,15.16c4.45,2.3,7.28,6.83,7.28,11.83v129.12C378.92,315.58,376.25,320.98,371.8,324.66z M394.41,339.81
		c1.2,2.08,1.52,4.5,0.9,6.82c-0.71,2.65-2.55,4.8-5.11,5.93c-3.78,1.66-8.34,0.44-10.79-2.88c-1.66-2.25-2.18-5.04-1.47-7.7
		c0.62-2.32,2.11-4.26,4.19-5.46c1.39-0.8,2.92-1.21,4.48-1.21c0.78,0,1.57,0.1,2.34,0.31
		C391.27,336.24,393.21,337.73,394.41,339.81z M391.92,156.25c-2.84,0.93-5.88,1.1-8.88,0.46c-5.64-1.19-10.28-5.05-12.51-10.6
		c-0.8-2-1.21-4.16-1.18-6.32c0.09-5.98,3.02-11.24,7.84-14.38c4.85-3.16,10.88-3.7,16.4-1.33c1.91,0.82,3.65,2.01,5.11,3.48
		c5.15,5.19,6.54,12.65,3.63,19.35c-0.8,1.83-1.93,3.51-3.34,4.93C396.94,153.92,394.52,155.4,391.92,156.25z"/>
</g>
<g id="name_5_" class="st2">
	<g class="st3">
		<path class="st1" d="M-46.78,587.88c3.58,2.21,8.82,4.04,14.34,4.04c8.18,0,12.96-4.32,12.96-10.57c0-5.79-3.31-9.1-11.67-12.32
			c-10.11-3.58-16.36-8.82-16.36-17.55c0-9.65,8-16.82,20.04-16.82c6.34,0,10.94,1.47,13.69,3.03l-2.21,6.52
			c-2.02-1.1-6.16-2.94-11.76-2.94c-8.46,0-11.67,5.05-11.67,9.28c0,5.79,3.77,8.64,12.31,11.95c10.48,4.04,15.81,9.1,15.81,18.2
			c0,9.56-7.08,17.83-21.69,17.83c-5.97,0-12.5-1.75-15.81-3.95L-46.78,587.88z"/>
		<path class="st1" d="M61.02,570.42c-0.46-8.64-1.01-19.02-0.92-26.74h-0.28c-2.11,7.26-4.69,14.98-7.81,23.53l-10.94,30.05h-6.07
			L25,567.75c-2.94-8.73-5.42-16.73-7.17-24.08h-0.18c-0.18,7.72-0.64,18.1-1.19,27.39l-1.65,26.56H7.17l4.32-61.94h10.2
			l10.57,29.96c2.57,7.63,4.69,14.43,6.25,20.86h0.28c1.56-6.25,3.77-13.05,6.52-20.86l11.03-29.96h10.2l3.86,61.94h-7.81
			L61.02,570.42z"/>
		<path class="st1" d="M101,578.14l-6.43,19.48h-8.27l21.05-61.94h9.65l21.14,61.94h-8.55l-6.62-19.48H101z M121.31,571.89
			l-6.07-17.83c-1.38-4.04-2.3-7.72-3.22-11.3h-0.18c-0.92,3.68-1.93,7.44-3.12,11.21l-6.07,17.92H121.31z"/>
		<path class="st1" d="M156.42,536.51c4.04-0.83,9.83-1.29,15.35-1.29c8.55,0,14.06,1.56,17.92,5.05c3.12,2.76,4.87,6.98,4.87,11.76
			c0,8.18-5.15,13.6-11.67,15.81v0.28c4.78,1.65,7.63,6.07,9.1,12.5c2.02,8.64,3.49,14.61,4.78,17h-8.27
			c-1.01-1.75-2.39-7.08-4.14-14.8c-1.84-8.55-5.15-11.76-12.41-12.04h-7.54v26.84h-8V536.51z M164.41,564.72h8.18
			c8.55,0,13.97-4.69,13.97-11.76c0-8-5.79-11.49-14.25-11.58c-3.86,0-6.62,0.37-7.9,0.74V564.72z"/>
		<path class="st1" d="M227.64,542.48H208.8v-6.8h45.86v6.8h-18.93v55.14h-8.09V542.48z"/>
		<path class="st1" d="M278.74,535.68v36.67c0,13.88,6.16,19.76,14.43,19.76c9.19,0,15.07-6.07,15.07-19.76v-36.67h8.09v36.12
			c0,19.02-10.02,26.84-23.44,26.84c-12.68,0-22.24-7.26-22.24-26.47v-36.49H278.74z"/>
		<path class="st1" d="M339.39,536.41c3.86-0.64,8.92-1.19,15.35-1.19c7.9,0,13.69,1.84,17.37,5.15c3.4,2.94,5.42,7.44,5.42,12.96
			c0,5.61-1.65,10.02-4.78,13.23c-4.23,4.5-11.12,6.8-18.93,6.8c-2.39,0-4.59-0.09-6.43-0.55v24.81h-8V536.41z M347.39,566.28
			c1.75,0.46,3.95,0.64,6.62,0.64c9.65,0,15.53-4.69,15.53-13.23c0-8.18-5.79-12.13-14.61-12.13c-3.49,0-6.16,0.28-7.54,0.64V566.28
			z"/>
	</g>
</g>
<g id="slogan_5_" class="st2">
	<path class="st4" d="M-16.38,648.66c1,0.61,2.46,1.13,3.99,1.13c2.28,0,3.61-1.2,3.61-2.94c0-1.61-0.92-2.53-3.25-3.43
		c-2.82-1-4.56-2.46-4.56-4.89c0-2.69,2.23-4.69,5.58-4.69c1.77,0,3.05,0.41,3.81,0.84l-0.61,1.82c-0.56-0.31-1.72-0.82-3.28-0.82
		c-2.36,0-3.25,1.41-3.25,2.59c0,1.61,1.05,2.41,3.43,3.33c2.92,1.13,4.4,2.54,4.4,5.07c0,2.66-1.97,4.97-6.04,4.97
		c-1.66,0-3.48-0.49-4.4-1.1L-16.38,648.66z"/>
	<path class="st4" d="M7.41,634.12h2.23v15.39h7.37v1.87h-9.6V634.12z"/>
	<path class="st4" d="M45.1,642.57c0,5.94-3.61,9.09-8.01,9.09c-4.56,0-7.76-3.53-7.76-8.76c0-5.48,3.41-9.06,8.01-9.06
		C42.05,633.84,45.1,637.45,45.1,642.57z M31.71,642.85c0,3.69,2,6.99,5.5,6.99c3.53,0,5.53-3.25,5.53-7.17
		c0-3.43-1.79-7.02-5.5-7.02C33.55,635.66,31.71,639.06,31.71,642.85z"/>
	<path class="st4" d="M71.99,650.61c-1,0.36-2.97,0.95-5.3,0.95c-2.61,0-4.76-0.67-6.45-2.28c-1.48-1.43-2.41-3.74-2.41-6.43
		c0.03-5.15,3.56-8.91,9.35-8.91c2,0,3.56,0.44,4.3,0.79l-0.54,1.82c-0.92-0.41-2.07-0.74-3.81-0.74c-4.2,0-6.94,2.61-6.94,6.94
		c0,4.38,2.64,6.96,6.66,6.96c1.46,0,2.46-0.21,2.97-0.46v-5.15H66.3v-1.79h5.68V650.61z"/>
	<path class="st4" d="M89.04,645.95l-1.79,5.43h-2.3l5.86-17.26h2.69l5.89,17.26H97l-1.84-5.43H89.04z M94.7,644.21l-1.69-4.97
		c-0.38-1.13-0.64-2.15-0.9-3.15h-0.05c-0.26,1.02-0.54,2.07-0.87,3.12l-1.69,4.99H94.7z"/>
	<path class="st4" d="M112.78,651.38v-17.26h2.43l5.53,8.73c1.28,2.02,2.28,3.84,3.1,5.61l0.05-0.03c-0.2-2.3-0.26-4.4-0.26-7.09
		v-7.22h2.1v17.26h-2.25l-5.48-8.76c-1.2-1.92-2.36-3.89-3.23-5.76l-0.08,0.03c0.13,2.18,0.18,4.25,0.18,7.12v7.37H112.78z"/>
	<path class="st4" d="M159.05,650.61c-1,0.36-2.97,0.95-5.3,0.95c-2.61,0-4.76-0.67-6.45-2.28c-1.49-1.43-2.41-3.74-2.41-6.43
		c0.03-5.15,3.56-8.91,9.35-8.91c2,0,3.56,0.44,4.3,0.79l-0.54,1.82c-0.92-0.41-2.07-0.74-3.81-0.74c-4.2,0-6.94,2.61-6.94,6.94
		c0,4.38,2.64,6.96,6.66,6.96c1.46,0,2.46-0.21,2.97-0.46v-5.15h-3.51v-1.79h5.68V650.61z"/>
	<path class="st4" d="M188.06,642.57c0,5.94-3.61,9.09-8.01,9.09c-4.56,0-7.76-3.53-7.76-8.76c0-5.48,3.41-9.06,8.01-9.06
		C185.02,633.84,188.06,637.45,188.06,642.57z M174.67,642.85c0,3.69,2,6.99,5.5,6.99c3.53,0,5.53-3.25,5.53-7.17
		c0-3.43-1.79-7.02-5.5-7.02C176.52,635.66,174.67,639.06,174.67,642.85z"/>
	<path class="st4" d="M210.75,643.29h-6.71v6.22h7.48v1.87h-9.7v-17.26h9.32v1.87h-7.09v5.45h6.71V643.29z"/>
	<path class="st4" d="M224.96,648.66c1,0.61,2.46,1.13,3.99,1.13c2.28,0,3.61-1.2,3.61-2.94c0-1.61-0.92-2.53-3.25-3.43
		c-2.82-1-4.56-2.46-4.56-4.89c0-2.69,2.23-4.69,5.58-4.69c1.77,0,3.05,0.41,3.82,0.84l-0.62,1.82c-0.56-0.31-1.71-0.82-3.28-0.82
		c-2.36,0-3.25,1.41-3.25,2.59c0,1.61,1.05,2.41,3.43,3.33c2.92,1.13,4.4,2.54,4.4,5.07c0,2.66-1.97,4.97-6.04,4.97
		c-1.66,0-3.48-0.49-4.4-1.1L224.96,648.66z"/>
	<path class="st4" d="M256.41,634.12v7.22h8.35v-7.22h2.25v17.26h-2.25v-8.09h-8.35v8.09h-2.23v-17.26H256.41z"/>
	<path class="st4" d="M290.67,643.29h-6.71v6.22h7.48v1.87h-9.7v-17.26h9.32v1.87h-7.09v5.45h6.71V643.29z"/>
	<path class="st4" d="M305.19,634.35c1.13-0.23,2.74-0.36,4.28-0.36c2.38,0,3.92,0.44,4.99,1.41c0.87,0.77,1.36,1.95,1.36,3.28
		c0,2.28-1.43,3.79-3.25,4.4v0.08c1.33,0.46,2.13,1.69,2.53,3.48c0.56,2.41,0.97,4.07,1.33,4.74h-2.3
		c-0.28-0.49-0.67-1.97-1.15-4.12c-0.51-2.38-1.43-3.28-3.46-3.35h-2.1v7.48h-2.23V634.35z M307.42,642.21h2.28
		c2.38,0,3.89-1.31,3.89-3.28c0-2.23-1.61-3.2-3.97-3.23c-1.08,0-1.84,0.1-2.2,0.21V642.21z"/>
	<path class="st4" d="M338.76,643.29h-6.71v6.22h7.48v1.87h-9.7v-17.26h9.32v1.87h-7.09v5.45h6.71V643.29z"/>
</g>
<g>
</g>
<g>
</g>
<g>
</g>
<g>
</g>
<g>
</g>
<g>
</g>
</svg>
