<?xml version="1.0" encoding="utf-8"?>
<!-- Generator: Adobe Illustrator 24.1.2, SVG Export Plug-In . SVG Version: 6.00 Build 0)  -->
<svg version="1.1" id="Layer_1" xmlns="http://www.w3.org/2000/svg" xmlns:xlink="http://www.w3.org/1999/xlink" x="0px" y="0px"
	 viewBox="0 0 64 130" enable-background="new 0 0 64 130" xml:space="preserve">
<rect x="-424" y="-321" display="none" fill="#232232" width="1160" height="772"/>
<g>
	<g>
		<path fill="#FFB900" d="M58,46.9h-1.8c-3.3,0-8.6,0-11.9,0H19.7c-3.3,0-6,2.3-6,5.1s0,7.7,0,11v50.9c0,3.3-2.7,6-6,6H6
			c-3.3,0-6,2.3-6,5.1c0,2.8,2.7,5.1,6,5.1h1.8c3.3,0,8.6,0,11.9,0h24.6c3.3,0,6-2.3,6-5.1c0-2.8,0-7.7,0-11V63c0-3.3,2.7-6,6-6H58
			c3.3,0,6-2.3,6-5.1S61.3,46.9,58,46.9z"/>
		<path fill="#FFB900" d="M6,10.1h1.8c3.3,0,6,2.7,6,6v4.3c0,3.3,0,8.2,0,11s2.7,5.1,6,5.1h24.6c3.3,0,8.6,0,11.9,0H58
			c3.3,0,6-2.3,6-5.1s-2.7-5.1-6-5.1h-1.8c-3.3,0-6-2.7-6-6v-4.3c0-3.3,0-8.2,0-11c0-2.8-2.7-5.1-6-5.1H19.7c-3.3,0-8.6,0-11.9,0H6
			C2.7,0,0,2.3,0,5.1C0,7.8,2.7,10.1,6,10.1z"/>
	</g>
	<g display="none">
		
			<text transform="matrix(1 0 0 1 106.3379 56.0957)" display="inline" fill="#FFFFFF" font-family="'Gotham-Medium'" font-size="41.9955px">&lt;INSIGHT</text>
		
			<text transform="matrix(1 0 0 1 106.3379 102.4639)" display="inline" fill="#FFFFFF" font-family="'Gotham-Medium'" font-size="41.9955px">&lt;/CODE&gt;</text>
	</g>
</g>
</svg>
